<svg width="22" height="21" viewBox="0 0 22 21" fill="none" xmlns="http://www.w3.org/2000/svg">
<path d="M6.75 9C6.05964 9 5.5 9.55964 5.5 10.25V11.75C5.5 12.4404 6.05964 13 6.75 13C7.44036 13 8 12.4404 8 11.75V10.25C8 9.55964 7.44036 9 6.75 9Z" fill="#24292E"/>
<path d="M8.02071 13.4995C7.99655 13.2244 8.22386 13 8.5 13H13.5C13.7761 13 14.0034 13.2244 13.9793 13.4995C13.8637 14.8158 13.2213 16 11 16C8.77865 16 8.13631 14.8158 8.02071 13.4995Z" fill="#24292E"/>
<path d="M15.25 9C14.5596 9 14 9.55964 14 10.25V11.75C14 12.4404 14.5596 13 15.25 13C15.9404 13 16.5 12.4404 16.5 11.75V10.25C16.5 9.55964 15.9404 9 15.25 9Z" fill="#24292E"/>
<path fill-rule="evenodd" clip-rule="evenodd" d="M20.2552 1.81992C19.9969 0.90911 19.0545 0.35353 18.1138 0.624544C17.5572 0.784883 16.7084 1.06532 15.8497 1.49057C15.0695 1.87697 14.203 2.42071 13.5569 3.16758C12.7749 3.05802 11.9243 3 11 3C10.0709 3 9.21638 3.05862 8.43096 3.16928C7.78625 2.42957 6.92563 1.89019 6.15026 1.5062C5.29158 1.08094 4.44279 0.800508 3.88622 0.640169C2.94547 0.369155 2.00314 0.924735 1.74484 1.83554C1.54378 2.54448 1.23205 3.77315 1.05583 5.12772C0.929562 6.09828 0.863698 7.19748 0.989364 8.24017C0.254246 9.88198 0 11.7343 0 13.5265C0 17.9152 2.13043 21 11 21C19.8696 21 22 17.947 22 13.5265C22 11.7331 21.7454 9.87948 21.0091 8.23685C21.1368 7.1905 21.0709 6.08647 20.9442 5.11209C20.768 3.75753 20.4562 2.52886 20.2552 1.81992ZM19.4999 12C20 15.5 18 18.5 10.9999 18.5C3.99974 18.5 1.99999 15.5 2.4999 12C3.08255 8 5.49981 6 10.9999 6C16.4999 6 18.9284 8 19.4999 12Z" fill="#24292E"/>
</svg>
