<svg xmlns="http://www.w3.org/2000/svg" viewBox="0 0 448 448"><defs><style>.cls-1{fill:#08a0e9;}.cls-2{fill:#fff;}</style></defs><title>資產 3</title><g id="圖層_2" data-name="圖層 2"><g id="圖層_1-2" data-name="圖層 1"><circle class="cls-1" cx="224" cy="224" r="224"/><path class="cls-2" d="M351.1,170.91c.2,2.8.2,5.7.2,8.5,0,86.7-66,186.6-186.6,186.6A185.74,185.74,0,0,1,64,336.61a138.17,138.17,0,0,0,15.8.8,131.49,131.49,0,0,0,81.4-28,65.67,65.67,0,0,1-61.3-45.5c10.1,1.5,19.2,1.5,29.6-1.2A65.59,65.59,0,0,1,77,198.31v-.8a65.54,65.54,0,0,0,29.6,8.3,65.44,65.44,0,0,1-29.2-54.6,64.77,64.77,0,0,1,8.9-33.1,186.22,186.22,0,0,0,135.2,68.6c-9.3-44.5,24-80.6,64-80.6a65.35,65.35,0,0,1,47.9,20.7A128.52,128.52,0,0,0,375,111a65.41,65.41,0,0,1-28.8,36.1,130.52,130.52,0,0,0,37.8-10.2A138,138,0,0,1,351.1,170.91Z"/></g></g></svg>